<svg xmlns="http://www.w3.org/2000/svg" width="1200" height="630" fill="none" viewBox="0 0 1200 630"><defs><linearGradient id="a" x1="0%" x2="100%" y1="0%" y2="100%"><stop offset="0%" style="stop-color:#8a1d3e;stop-opacity:1"/><stop offset="50%" style="stop-color:#9b2d4e;stop-opacity:1"/><stop offset="100%" style="stop-color:#b26f1a;stop-opacity:1"/></linearGradient><filter id="b" width="200%" height="200%" x="-50%" y="-50%"><feDropShadow dx="0" dy="4" flood-opacity=".3" stdDeviation="8"/></filter></defs><path fill="url(#a)" d="M0 0h1200v630H0z"/><circle cx="100" cy="100" r="120" fill="#f1ddad" opacity=".1"/><circle cx="1100" cy="530" r="150" fill="#f1ddad" opacity=".08"/><circle cx="950" cy="80" r="100" fill="#fff" opacity=".06"/><g transform="translate(100 140)"><rect width="120" height="120" fill="#fff" filter="url(#b)" opacity=".15" rx="20"/><rect width="104" height="104" x="8" y="8" fill="#fff" rx="16"/><g transform="translate(25 25)"><path fill="#8a1d3e" d="M35 15h10l-3 30h-4Z" opacity=".9"/><ellipse cx="40" cy="15" fill="#b26f1a" rx="5" ry="3"/><circle cx="55" cy="55" r="12" stroke="#8a1d3e" stroke-width="3"/><circle cx="55" cy="55" r="7" fill="#b26f1a" opacity=".3"/><g stroke="#b26f1a" stroke-linecap="round"><path stroke-width="2.5" d="M20 45v20"/><path stroke-width="2" d="M17 45v8m6-8v8"/></g></g><text x="150" y="50" fill="#fff" font-family="system-ui, -apple-system, 'Segoe UI', sans-serif" font-size="62" font-weight="800" letter-spacing="-1">
      BotecoPro
    </text><text x="150" y="100" fill="#f1ddad" font-family="system-ui, -apple-system, 'Segoe UI', sans-serif" font-size="32" font-weight="600">
      Gestão Inteligente
    </text><text x="150" y="140" fill="#f1ddad" font-family="system-ui, -apple-system, 'Segoe UI', sans-serif" font-size="32" font-weight="600">
      para Bares e Restaurantes
    </text></g><g fill="#fff" transform="translate(100 400)"><rect width="180" height="50" opacity=".2" rx="25"/><text x="90" y="33" font-family="system-ui, -apple-system, sans-serif" font-size="18" font-weight="600" text-anchor="middle">
      Cardápio Digital
    </text><rect width="140" height="50" x="200" opacity=".2" rx="25"/><text x="270" y="33" font-family="system-ui, -apple-system, sans-serif" font-size="18" font-weight="600" text-anchor="middle">
      Gestão PDV
    </text><rect width="180" height="50" x="360" opacity=".2" rx="25"/><text x="450" y="33" font-family="system-ui, -apple-system, sans-serif" font-size="18" font-weight="600" text-anchor="middle">
      Relatórios em Tempo Real
    </text></g><text fill="#f1ddad" font-family="system-ui, -apple-system, sans-serif" font-size="20" font-weight="500" opacity=".9" transform="translate(100 540)">
      boteco.pt • Transforme seu negócio
    </text></svg>