<svg xmlns="http://www.w3.org/2000/svg" width="640" height="360" fill="none" viewBox="0 0 640 360"><rect width="640" height="360" fill="#f1ddad" rx="24"/><circle cx="90" cy="280" r="75" fill="#b26f1a" opacity=".1"/><circle cx="540" cy="100" r="90" fill="#8a1d3e" opacity=".12"/><circle cx="600" cy="320" r="50" fill="#b26f1a" opacity=".08"/><rect width="460" height="220" x="90" y="70" fill="#fff" stroke="#b26f1a" stroke-width="2.5" rx="20"/><g transform="translate(120 100)"><rect width="60" height="50" y="40" fill="#8a1d3e" stroke="#8a1d3e" stroke-width="2" opacity=".15" rx="8"/><rect width="60" height="50" fill="#8a1d3e" stroke="#8a1d3e" stroke-width="2" opacity=".2" rx="8"/><path stroke="#8a1d3e" stroke-linecap="round" stroke-width="2" d="M10 25h40M30 15v20"/><path stroke="#b26f1a" stroke-linecap="round" stroke-linejoin="round" stroke-width="3" d="m15 65 7 7 16-16"/></g><g transform="translate(240 110)"><rect width="140" height="100" fill="#f1ddad" stroke="#b26f1a" stroke-width="2" opacity=".3" rx="12"/><rect width="18" height="25" x="15" y="60" fill="#8a1d3e" rx="3"/><rect width="18" height="40" x="40" y="45" fill="#b26f1a" rx="3"/><rect width="18" height="50" x="65" y="35" fill="#8a1d3e" rx="3"/><rect width="18" height="35" x="90" y="50" fill="#b26f1a" rx="3"/><rect width="18" height="45" x="115" y="40" fill="#8a1d3e" rx="3"/><path stroke="#8a1d3e" stroke-linecap="round" stroke-linejoin="round" stroke-width="2.5" d="m20 65 29-13 25-7 25 10 25-7" opacity=".6"/></g><g transform="translate(410 100)"><circle cx="8" cy="8" r="6" fill="#b26f1a"/><rect width="90" height="12" x="20" y="2" fill="#4f3222" opacity=".15" rx="6"/><circle cx="8" cy="35" r="6" fill="#8a1d3e"/><rect width="75" height="12" x="20" y="29" fill="#4f3222" opacity=".15" rx="6"/><circle cx="8" cy="62" r="6" fill="#b26f1a"/><rect width="85" height="12" x="20" y="56" fill="#4f3222" opacity=".15" rx="6"/><circle cx="8" cy="89" r="6" fill="#8a1d3e"/><rect width="70" height="12" x="20" y="83" fill="#4f3222" opacity=".15" rx="6"/></g><g transform="translate(460 230)"><circle cx="20" cy="20" r="18" fill="#b26f1a" opacity=".2"/><circle cx="20" cy="20" r="14" fill="#b26f1a"/><text x="20" y="27" fill="#fff" font-family="system-ui, -apple-system, sans-serif" font-size="18" font-weight="bold" text-anchor="middle">!</text></g><rect width="200" height="8" x="100" y="270" fill="#8a1d3e" opacity=".2" rx="4"/><rect width="140" height="8" x="100" y="270" fill="#b26f1a" rx="4"/><path fill="#8a1d3e" d="M35 35h35L35 70Z" opacity=".12"/><path fill="#b26f1a" d="M605 325h-35l35-35Z" opacity=".12"/></svg>