<svg xmlns="http://www.w3.org/2000/svg" width="640" height="360" fill="none" viewBox="0 0 640 360"><rect width="640" height="360" fill="#f1ddad" rx="24"/><defs><linearGradient id="a" x1="0%" x2="100%" y1="0%" y2="100%"><stop offset="0%" style="stop-color:#8a1d3e;stop-opacity:.15"/><stop offset="100%" style="stop-color:#b26f1a;stop-opacity:.15"/></linearGradient></defs><circle cx="90" cy="90" r="80" fill="url(#a)"/><circle cx="570" cy="90" r="70" fill="#b26f1a" opacity=".1"/><circle cx="560" cy="290" r="85" fill="#8a1d3e" opacity=".12"/><rect width="440" height="210" x="100" y="75" fill="#fff" stroke="#8a1d3e" stroke-width="2.5" rx="22"/><g transform="translate(130 105)"><rect width="85" height="70" fill="#f1ddad" stroke="#8a1d3e" stroke-width="2" opacity=".4" rx="12"/><path stroke="#b26f1a" stroke-linecap="round" stroke-linejoin="round" stroke-width="4" d="m20 35 12 12 30-30"/><rect width="85" height="70" y="90" fill="#f1ddad" stroke="#b26f1a" stroke-width="2" opacity=".3" rx="12"/><path stroke="#8a1d3e" stroke-linecap="round" stroke-linejoin="round" stroke-width="3.5" d="M25 120h35m0 0-8-8m8 8-8 8"/><circle cx="42" cy="145" r="8" fill="#b26f1a"/></g><g transform="translate(250 110)"><rect width="180" height="140" fill="#8a1d3e" opacity=".08" rx="16"/><circle cx="90" cy="45" r="28" fill="#b26f1a" opacity=".2"/><circle cx="90" cy="45" r="22" fill="#b26f1a"/><path fill="#fff" d="m105 45 1 3 3 1-3 1-1 3-1-3-3-1 3-1Z"/><rect width="120" height="10" x="30" y="85" fill="#8a1d3e" opacity=".2" rx="5"/><rect width="95" height="10" x="30" y="103" fill="#8a1d3e" opacity=".15" rx="5"/><rect width="110" height="10" x="30" y="121" fill="#8a1d3e" opacity=".1" rx="5"/></g><g transform="translate(460 120)"><circle cx="15" cy="15" r="12" fill="#b26f1a"/><path stroke="#fff" stroke-linecap="round" stroke-linejoin="round" stroke-width="2.5" d="m10 15 3 3 7-7"/><g stroke="#8a1d3e" stroke-width="2" transform="translate(0 40)"><circle cx="15" cy="15" r="12" fill="#8a1d3e" opacity=".3"/><path stroke-linecap="round" d="M15 9v6l4 2"/></g><g transform="translate(0 80)"><circle cx="15" cy="15" r="12" stroke="#4f3222" stroke-width="2" opacity=".3"/><circle cx="15" cy="15" r="3" fill="#4f3222" opacity=".3"/></g></g><g transform="translate(470 240)"><rect width="50" height="24" fill="#b26f1a" opacity=".2" rx="12"/><text x="25" y="16" fill="#8a1d3e" font-family="system-ui, -apple-system, sans-serif" font-size="12" font-weight="bold" text-anchor="middle">v2.0</text></g><path stroke="#8a1d3e" stroke-dasharray="5,5" stroke-width="2" d="M475 135v80" opacity=".3"/><path fill="#b26f1a" d="M35 35h40L35 75Z" opacity=".15"/><path fill="#8a1d3e" d="M605 325h-40l40-40Z" opacity=".15"/><g transform="translate(90 250)"><circle r="8" fill="#b26f1a"/><circle r="12" stroke="#b26f1a" stroke-width="2" opacity=".3"/></g></svg>