<svg xmlns="http://www.w3.org/2000/svg" width="640" height="360" fill="none" viewBox="0 0 640 360"><rect width="640" height="360" fill="#f1ddad" rx="24"/><circle cx="100" cy="80" r="70" fill="#8a1d3e" opacity=".1"/><circle cx="560" cy="90" r="85" fill="#b26f1a" opacity=".12"/><circle cx="80" cy="290" r="60" fill="#b26f1a" opacity=".08"/><circle cx="580" cy="300" r="55" fill="#8a1d3e" opacity=".08"/><rect width="440" height="200" x="100" y="80" fill="#fff" stroke="#8a1d3e" stroke-width="2.5" rx="20"/><g transform="translate(140 120)"><circle cx="40" cy="30" r="24" fill="#8a1d3e" opacity=".15"/><circle cx="40" cy="28" r="18" fill="#8a1d3e"/><path fill="#8a1d3e" stroke="#8a1d3e" stroke-linecap="round" stroke-width="2" d="M15 80q0-25 25-25t25 25"/><rect width="32" height="4" x="60" y="60" fill="#b26f1a" rx="2"/><circle cx="70" cy="58" r="3" fill="#b26f1a"/><circle cx="82" cy="58" r="3" fill="#b26f1a"/></g><path fill="#b26f1a" d="m300 125 4 8 9 1-6.5 6 1.5 9-8-4.5-8 4.5 1.5-9-6.5-6 9-1Zm40 0 4 8 9 1-6.5 6 1.5 9-8-4.5-8 4.5 1.5-9-6.5-6 9-1Zm40 0 4 8 9 1-6.5 6 1.5 9-8-4.5-8 4.5 1.5-9-6.5-6 9-1Z"/><g transform="translate(280 170)"><circle cx="20" cy="20" r="14" fill="#8a1d3e" opacity=".2"/><path stroke="#8a1d3e" stroke-linecap="round" stroke-linejoin="round" stroke-width="3" d="m14 20 4 4 8-8"/><circle cx="60" cy="20" r="14" fill="#8a1d3e" opacity=".2"/><path stroke="#8a1d3e" stroke-linecap="round" stroke-linejoin="round" stroke-width="3" d="m54 20 4 4 8-8"/><circle cx="100" cy="20" r="14" fill="#8a1d3e" opacity=".2"/><path stroke="#8a1d3e" stroke-linecap="round" stroke-linejoin="round" stroke-width="3" d="m94 20 4 4 8-8"/></g><g transform="translate(420 140)"><circle cx="20" cy="20" r="20" fill="#b26f1a" opacity=".15"/><circle cx="14" cy="17" r="2.5" fill="#4f3222"/><circle cx="26" cy="17" r="2.5" fill="#4f3222"/><path stroke="#4f3222" stroke-linecap="round" stroke-width="2.5" d="M12 24q8 4 16 0"/></g><rect width="440" height="6" x="100" y="260" fill="#8a1d3e" opacity=".2" rx="3"/><path fill="#b26f1a" d="M40 40h30L40 70Z" opacity=".15"/><path fill="#8a1d3e" d="M600 320h-30l30-30Z" opacity=".15"/></svg>